HIERARCHY
ROOT root
{
	OFFSET 0.000000 0.000000 0.000000
	CHANNELS 6 Xposition Yposition Zposition Zrotation Yrotation Xrotation
	JOINT lhip
	{
		OFFSET 0.058581 -0.082280 -0.017664
		CHANNELS 3 Zrotation Yrotation Xrotation
		JOINT lknee
		{
			OFFSET 0.043451 -0.386469 0.008037
			CHANNELS 3 Zrotation Yrotation Xrotation
			JOINT lankle
			{
				OFFSET -0.014790 -0.426874 -0.037428
				CHANNELS 3 Zrotation Yrotation Xrotation
				JOINT ltoe
				{
					OFFSET 0.041054 -0.060286 0.122042
					CHANNELS 3 Zrotation Yrotation Xrotation
					End Site
					{
						OFFSET 0.000000 0.000000 0.000000
					}
				}
			}
		}
	}
	JOINT rhip
	{
		OFFSET -0.060310 -0.090513 -0.013543
		CHANNELS 3 Zrotation Yrotation Xrotation
		JOINT rknee
		{
			OFFSET -0.043257 -0.383688 -0.004843
			CHANNELS 3 Zrotation Yrotation Xrotation
			JOINT rankle
			{
				OFFSET 0.019056 -0.420046 -0.034562
				CHANNELS 3 Zrotation Yrotation Xrotation
				JOINT rtoe
				{
					OFFSET -0.034840 -0.062106 0.130323
					CHANNELS 3 Zrotation Yrotation Xrotation
					End Site
					{
						OFFSET 0.000000 0.000000 0.000000
					}
				}
			}
		}
	}
	JOINT lowerback
	{
		OFFSET 0.004439 0.124404 -0.038385
		CHANNELS 3 Zrotation Yrotation Xrotation
		JOINT upperback
		{
			OFFSET 0.004488 0.137956 0.026820
			CHANNELS 3 Zrotation Yrotation Xrotation
			JOINT chest
			{
				OFFSET -0.002265 0.056032 0.002855
				CHANNELS 3 Zrotation Yrotation Xrotation
				JOINT lowerneck
				{
					OFFSET -0.013390 0.211636 -0.033468
					CHANNELS 3 Zrotation Yrotation Xrotation
					JOINT upperneck
					{
						OFFSET 0.010113 0.088937 0.050410
						CHANNELS 3 Zrotation Yrotation Xrotation
						End Site
						{
							OFFSET 0.000000 0.000000 0.000000
						}
					}
				}
				JOINT lclavicle
				{
					OFFSET 0.071702 0.114000 -0.018898
					CHANNELS 3 Zrotation Yrotation Xrotation
					JOINT lshoulder
					{
						OFFSET 0.122921 0.045205 -0.019046
						CHANNELS 3 Zrotation Yrotation Xrotation
						JOINT lelbow
						{
							OFFSET 0.255332 -0.015649 -0.022946
							CHANNELS 3 Zrotation Yrotation Xrotation
							JOINT lwrist
							{
								OFFSET 0.265709 0.012698 -0.007375
								CHANNELS 3 Zrotation Yrotation Xrotation
								End Site
								{
									OFFSET 0.000000 0.000000 0.000000
								}
							}
						}
					}
				}
				JOINT rclavicle
				{
					OFFSET -0.082954 0.112472 -0.023707
					CHANNELS 3 Zrotation Yrotation Xrotation
					JOINT rshoulder
					{
						OFFSET -0.113228 0.046853 -0.008472
						CHANNELS 3 Zrotation Yrotation Xrotation
						JOINT relbow
						{
							OFFSET -0.260127 -0.014369 -0.031269
							CHANNELS 3 Zrotation Yrotation Xrotation
							JOINT rwrist
							{
								OFFSET -0.269108 0.006794 -0.006027
								CHANNELS 3 Zrotation Yrotation Xrotation
								End Site
								{
									OFFSET 0.000000 0.000000 0.000000
								}
							}
						}
					}
				}
			}
		}
	}
}
MOTION
Frames: 13
Frame Time: 0.033333
-1.510734 1.519413 0.971429 65.304106 0.649446 86.039930 -6.802952 -1.211520 0.248420 -1.647654 -8.494063 13.970509 4.965584 13.875639 -19.781056 0.000000 -0.000000 0.000000 -2.310968 -4.472225 -12.094878 -7.424155 -10.051183 17.609525 -0.285949 -14.952342 -9.703266 0.000000 -0.000000 0.000000 0.806714 1.500257 6.713593 3.327487 -2.518727 12.987489 -0.468312 1.776157 -6.196252 -4.612559 3.072599 12.964890 1.304566 -0.060983 3.350520 -21.808090 6.187959 -3.253781 -59.574991 -2.228257 12.029442 15.003672 -24.905833 -10.935220 -8.423324 -17.720915 9.924133 22.683298 2.157643 1.822502 49.718357 -0.833515 8.590598 -12.109915 24.782726 -6.651542 9.637384 13.751438 10.792135 
-1.510429 1.519538 0.971067 65.375076 0.634625 86.022682 -6.858648 -1.137456 0.558415 -1.540624 -8.745397 13.386944 5.163441 13.942193 -19.652605 0.000000 -0.000000 0.000000 -2.354035 -4.496278 -12.092268 -7.539536 -9.994140 17.700459 -0.262071 -14.650142 -9.646291 0.000000 -0.000000 0.000000 0.749098 1.426277 6.728801 3.286176 -2.546205 12.725273 -0.461739 1.717829 -6.119589 -4.562996 3.279538 13.118513 1.394867 0.027329 3.136040 -21.563893 6.228963 -3.450929 -59.855016 -2.053588 12.293676 15.387151 -25.305025 -10.962111 -8.189989 -17.911726 9.485887 22.613363 2.196722 1.832749 49.855417 -0.795185 8.853151 -12.214018 25.031849 -6.661826 9.718734 13.940644 10.466387 
-1.509607 1.519734 0.970863 65.288144 0.620678 85.896547 -6.937210 -0.981845 0.943665 -1.465080 -8.941916 12.992434 5.194554 13.915040 -19.385708 0.000000 -0.000000 0.000000 -2.431718 -4.388911 -11.862791 -7.507510 -10.062424 17.588789 -0.247148 -14.541173 -9.689322 0.000000 -0.000000 0.000000 0.697815 1.412357 6.648914 3.312907 -2.494755 12.778392 -0.476527 1.632700 -6.076898 -4.470403 3.305136 13.200007 1.444752 -0.125359 3.295288 -21.589833 6.231232 -3.521093 -59.829186 -1.963369 12.311964 15.381384 -25.990845 -11.016336 -8.483349 -17.770874 9.415339 22.654996 2.249740 1.722750 49.835045 -0.736900 8.925521 -12.388456 25.172073 -6.753676 9.903368 14.009271 10.656827 
-1.509358 1.519797 0.970339 65.191441 0.742527 85.785309 -6.860750 -0.979898 1.047426 -1.515641 -9.059257 13.005575 5.146347 13.998798 -19.313260 0.000000 -0.000000 0.000000 -2.196188 -4.248955 -11.950133 -7.653273 -10.115403 17.866329 -0.415633 -14.674755 -9.984241 0.000000 -0.000000 0.000000 0.745921 1.427968 6.632978 3.344483 -2.392947 12.642914 -0.392370 1.634688 -6.083572 -4.558636 3.098914 13.378143 1.443310 -0.188766 3.525200 -21.590067 5.900474 -3.203720 -59.824984 -2.065512 12.283206 15.490780 -26.835917 -11.024409 -8.017383 -17.805991 9.209263 22.537231 2.426626 1.949851 49.828172 -0.635566 8.820799 -12.371636 25.144188 -6.443491 9.851842 13.987344 10.540682 
-1.509222 1.520004 0.969981 65.130255 0.754525 85.730028 -6.917407 -1.039670 1.098559 -1.461788 -8.960458 13.008469 5.159089 14.082286 -19.433886 0.000000 -0.000000 0.000000 -2.103806 -4.231217 -12.028515 -7.743742 -10.056050 18.046085 -0.462881 -14.678542 -10.164610 0.000000 -0.000000 0.000000 0.794516 1.457076 6.608630 3.317506 -2.365971 12.707777 -0.412508 1.623448 -6.147986 -4.512534 3.078427 13.323575 1.386896 -0.187497 3.797103 -21.598823 5.644299 -3.166636 -59.745675 -2.206412 12.323695 15.642543 -26.974810 -11.247395 -7.421005 -17.975520 9.066951 22.616818 2.551480 2.077019 49.595160 -0.529576 8.827621 -12.172268 25.076198 -6.401101 9.435496 13.927958 10.714317 
-1.509080 1.520225 0.969527 64.925456 0.710321 85.579503 -6.993745 -1.073314 1.148098 -1.525649 -8.796516 13.260612 5.244585 14.223767 -19.541441 0.000000 -0.000000 0.000000 -2.035736 -4.187662 -12.089827 -7.894420 -10.117694 18.319370 -0.647343 -14.824670 -10.379637 0.000000 -0.000000 0.000000 0.790711 1.533821 6.736658 3.301591 -2.301428 12.714779 -0.442741 1.644798 -6.210334 -4.493708 3.084898 13.293335 1.339915 -0.186189 3.878832 -21.567938 5.558835 -3.284344 -59.626684 -2.334122 12.289279 15.325541 -27.018645 -11.256364 -8.246117 -17.508682 8.783641 22.581987 2.652113 2.122145 49.442771 -0.492807 8.918257 -12.126048 25.155477 -6.392666 9.975060 13.857401 10.805107 
-1.509297 1.520485 0.969090 64.760209 0.558940 85.486435 -7.125555 -1.098537 1.196606 -1.681396 -8.818476 13.312618 5.241204 14.384607 -19.563643 0.000000 -0.000000 0.000000 -1.991963 -4.194019 -12.327789 -8.082405 -10.260468 18.697846 -0.819229 -15.063610 -10.356179 0.000000 -0.000000 0.000000 0.689424 1.474682 6.891251 3.204185 -2.289630 12.654763 -0.500535 1.697176 -6.147752 -4.517356 3.073351 13.191562 1.420785 -0.286936 3.851474 -21.673478 5.548136 -3.278201 -59.282812 -2.378547 12.238790 15.412269 -27.595186 -11.445146 -7.861392 -17.768122 8.902631 22.658470 2.863544 2.182848 49.424607 -0.424310 8.874297 -12.300865 25.187069 -6.567961 9.830543 13.941811 10.597261 
-1.509617 1.520982 0.968763 64.739715 0.517486 85.313376 -7.178327 -1.095894 1.040879 -1.783304 -8.667858 13.974664 5.237096 14.335228 -19.748958 0.000000 -0.000000 0.000000 -1.898173 -4.206340 -12.477483 -8.270077 -10.335605 19.134783 -0.971750 -15.332492 -10.502175 0.000000 -0.000000 0.000000 0.722542 1.409037 7.080081 3.165744 -2.339243 12.742329 -0.548227 1.683838 -6.027461 -4.441195 3.182770 12.849410 1.449499 -0.316433 4.104043 -21.611485 5.394171 -3.133385 -59.276475 -2.509070 12.180758 15.537659 -28.171932 -11.597842 -7.841090 -17.750498 8.493516 22.770340 2.950036 2.147650 49.259738 -0.328495 8.783857 -12.458503 25.321758 -6.780856 9.877990 13.873484 10.435439 
-1.510160 1.521364 0.968535 64.592575 0.500596 85.367697 -7.162235 -1.110461 0.724705 -1.948159 -8.567736 14.377818 5.236604 14.411898 -19.832318 0.000000 -0.000000 0.000000 -1.762694 -4.254519 -13.126706 -8.505208 -10.613709 19.954685 -1.182909 -15.580080 -10.418686 0.000000 -0.000000 0.000000 0.799071 1.321154 7.191336 3.169030 -2.333277 12.695347 -0.618771 1.620679 -5.997867 -4.445911 3.288285 12.699699 1.384084 -0.221167 4.290329 -21.682525 5.440706 -3.111609 -59.051944 -2.564040 12.267954 15.090582 -28.354530 -11.378912 -7.967965 -17.894113 8.324751 22.838047 3.024396 2.067571 48.964961 -0.216597 8.910881 -12.308453 25.364977 -6.638317 9.949894 13.864285 10.527975 
-1.511132 1.521411 0.968192 64.228147 0.519147 85.194446 -7.201695 -1.043114 0.833212 -1.870767 -8.600391 14.567629 5.443740 14.831120 -20.515852 0.000000 -0.000000 0.000000 -1.559517 -4.136497 -14.028180 -8.649626 -10.984994 21.577971 -1.695850 -16.049684 -10.375603 0.000000 -0.000000 0.000000 0.723507 1.121222 7.452834 3.243667 -2.288835 13.035446 -0.580456 1.716112 -5.901920 -4.308418 3.483009 12.301161 1.089381 -0.009193 4.194383 -21.424441 5.327975 -3.112681 -59.078344 -2.445720 12.342148 14.674737 -29.029200 -11.150200 -7.661256 -17.836487 8.218017 22.794816 3.417040 2.157538 48.692864 0.009799 8.926281 -12.173156 25.483501 -6.348542 9.939287 13.976641 10.698019 
-1.512478 1.521867 0.967692 63.756873 0.591945 85.189908 -7.140139 -1.125350 0.502953 -2.007021 -8.333999 15.153248 5.562128 15.175463 -20.889279 0.000000 -0.000000 0.000000 -1.205055 -4.102298 -15.325654 -8.882014 -11.909767 23.284929 -2.427260 -16.550869 -9.930374 0.000000 -0.000000 0.000000 0.726802 1.043995 8.148513 3.344154 -2.098011 12.669788 -0.568683 1.814790 -5.837758 -4.306199 3.554144 11.870873 0.917428 0.010000 4.460158 -21.355110 5.196198 -3.061403 -59.074497 -2.399267 12.679565 14.097691 -29.233135 -11.215755 -7.390636 -17.848515 7.660064 22.979656 3.448429 2.121958 48.185945 0.094851 9.132692 -11.958353 25.863407 -6.171346 10.040146 13.868634 10.606118 
-1.513821 1.521812 0.967002 63.207578 0.758641 84.890088 -6.864397 -1.025769 0.492141 -2.148244 -7.964655 15.644446 5.664072 15.392920 -21.125015 0.000000 -0.000000 0.000000 -0.655570 -4.245880 -16.458980 -9.153374 -13.584569 24.969726 -3.342368 -17.616594 -9.400868 0.000000 -0.000000 0.000000 0.788073 0.747193 9.046970 3.368399 -1.956054 12.510392 -0.551442 1.903174 -5.509245 -4.165338 4.062863 11.184753 0.701289 -0.031980 4.552104 -21.457477 5.021605 -2.906526 -58.715835 -2.559007 12.504111 13.611572 -29.852060 -11.061080 -7.794560 -17.604742 7.270038 23.244284 3.910510 2.145229 47.930285 0.401700 9.197374 -12.234174 26.074528 -6.268963 10.219581 13.827759 10.314446 
-1.514584 1.520970 0.966438 62.098347 0.651985 84.468476 -7.245914 -0.663751 1.012374 -1.601977 -7.741863 15.503604 5.675764 15.870671 -21.314083 0.000000 -0.000000 0.000000 -0.164264 -4.483135 -17.517649 -9.561092 -15.585356 26.518786 -4.080886 -18.862538 -9.379969 0.000000 -0.000000 0.000000 0.512917 0.684962 9.908020 3.321878 -1.568356 12.783660 -0.415138 1.917988 -5.121078 -4.190325 4.508706 10.395885 0.446173 -0.227780 3.844796 -20.990136 4.693894 -2.452271 -58.820867 -2.453609 12.435375 12.756798 -31.038743 -10.526617 -8.262471 -17.371365 6.944084 23.045439 4.729557 2.306437 48.220263 0.765519 8.856193 -12.756208 26.320251 -6.793471 10.068557 13.899891 9.744997 
